<svg id="visual" viewBox="0 0 900 900" width="900" height="900" xmlns="http://www.w3.org/2000/svg" xmlns:xlink="http://www.w3.org/1999/xlink" version="1.1"><rect width="900" height="900" fill="#a953c2"></rect><g><g transform="translate(60 423)"><path d="M98.6 -83.1C124.6 -46 140.2 -5.2 129.3 24.3C118.4 53.8 80.9 72 45.2 86.3C9.4 100.6 -24.6 111.1 -59.9 102.5C-95.3 93.9 -132 66.2 -146.3 26.8C-160.5 -12.6 -152.2 -63.7 -124.1 -101.2C-96 -138.7 -48 -162.7 -5.8 -158C36.3 -153.4 72.6 -120.1 98.6 -83.1Z" fill="#fffb00"></path></g><g transform="translate(880 721)"><path d="M68 -60.9C78.7 -40.8 71.6 -13 65.1 14.6C58.6 42.3 52.8 69.9 37.3 77.2C21.9 84.5 -3.2 71.5 -25.6 58.6C-48.1 45.7 -67.9 32.9 -76 12.9C-84 -7 -80.3 -34 -65.6 -55.1C-51 -76.1 -25.5 -91.2 1.6 -92.4C28.6 -93.7 57.3 -81.1 68 -60.9Z" fill="#fffb00"></path></g><g transform="translate(271 843)"><path d="M59.1 -48.1C72.4 -30.5 76 -6.2 73.5 21.5C71 49.2 62.3 80.3 40.5 94.8C18.8 109.3 -16 107.3 -39.5 92.1C-62.9 76.9 -75.2 48.4 -81.6 18.9C-88.1 -10.5 -88.9 -41 -74.3 -58.9C-59.7 -76.8 -29.9 -82.1 -3.5 -79.3C22.9 -76.5 45.8 -65.7 59.1 -48.1Z" fill="#fffb00"></path></g><g transform="translate(590 478)"><path d="M97.2 -78.6C121.2 -47.3 132.9 -7.1 123.6 26.1C114.3 59.4 84.2 85.7 48.9 103.5C13.6 121.2 -26.8 130.4 -53.6 115.8C-80.3 101.1 -93.5 62.7 -95.6 28.8C-97.8 -5.1 -88.9 -34.5 -71.2 -64.3C-53.4 -94.2 -26.7 -124.4 4.9 -128.4C36.5 -132.3 73.1 -109.8 97.2 -78.6Z" fill="#fffb00"></path></g></g></svg>