<svg id="visual" viewBox="0 0 900 900" width="900" height="900" xmlns="http://www.w3.org/2000/svg" xmlns:xlink="http://www.w3.org/1999/xlink" version="1.1"><rect width="900" height="900" fill="#a953c2"></rect><g><g transform="translate(421 178)"><path d="M123.9 -102.4C150.8 -65.1 156 -14.2 144.3 31.3C132.6 76.7 104 116.6 68.4 128.5C32.9 140.5 -9.7 124.4 -49.1 104.5C-88.5 84.5 -124.8 60.6 -137.2 25.8C-149.6 -9.1 -138.1 -55 -111.2 -92.3C-84.4 -129.6 -42.2 -158.2 3.2 -160.7C48.5 -163.2 97 -139.7 123.9 -102.4Z" fill="#fffb00"></path></g><g transform="translate(842 430)"><path d="M73.6 -56.3C92.2 -35.3 102 -4.9 92.9 15.7C83.8 36.3 55.8 47.1 29.1 59.8C2.3 72.5 -23.3 87.1 -38 79.7C-52.8 72.4 -56.6 43.1 -59.1 17.6C-61.6 -7.8 -62.8 -29.5 -52.8 -48.5C-42.7 -67.5 -21.3 -83.9 3.1 -86.4C27.5 -88.8 55 -77.3 73.6 -56.3Z" fill="#fffb00"></path></g><g transform="translate(93 598)"><path d="M75.6 -53.1C95.7 -35.1 108.1 -3.8 99.8 19C91.6 41.8 62.8 56.2 33.4 71C3.9 85.9 -26.1 101.2 -47.4 93C-68.7 84.8 -81.3 53.1 -91.1 18.5C-100.9 -16.2 -107.8 -53.9 -92.2 -70.9C-76.5 -87.8 -38.3 -84.1 -5.2 -80C27.8 -75.8 55.5 -71.1 75.6 -53.1Z" fill="#fffb00"></path></g><g transform="translate(694 879)"><path d="M48.7 -44.7C56.5 -29.1 51.5 -9.2 46.6 10C41.7 29.2 36.9 47.9 23.7 57.3C10.6 66.6 -10.8 66.8 -26.2 58C-41.6 49.2 -50.9 31.5 -55.8 12.1C-60.8 -7.3 -61.4 -28.4 -51.3 -44.5C-41.3 -60.7 -20.7 -72 -0.1 -72C20.5 -71.9 40.9 -60.4 48.7 -44.7Z" fill="#fffb00"></path></g><g transform="translate(17 92)"><path d="M80.9 -69C93.9 -48.2 86 -15.2 77.4 15.6C68.7 46.4 59.3 74.9 38 89C16.7 103.1 -16.3 102.9 -37.1 88.5C-57.9 74.1 -66.5 45.6 -68.7 20.2C-71 -5.3 -66.9 -27.7 -54.4 -48.4C-41.9 -69.1 -21 -88.1 6.5 -93.3C33.9 -98.4 67.8 -89.8 80.9 -69Z" fill="#fffb00"></path></g></g></svg>