<svg xmlns="http://www.w3.org/2000/svg" xmlns:xlink="http://www.w3.org/1999/xlink" width="1920" zoomAndPan="magnify" viewBox="0 0 1440 809.999993" height="1080" preserveAspectRatio="xMidYMid meet" version="1.0"><defs><g/></defs><path stroke-linecap="butt" transform="matrix(0.650938, 0, 0, 0.650938, 11.435384, 191.906334)" fill="none" stroke-linejoin="miter" d="M 493.461862 372.623233 C 490.617408 373.127313 486.380734 373.823424 480.757838 374.705565 C 475.194952 375.653716 469.572056 376.127791 463.88315 376.127791 C 458.194243 376.127791 453.069427 375.719726 448.520702 374.897595 C 444.031987 374.135474 440.239383 372.587227 437.14289 370.252856 C 434.046396 367.912483 431.646014 364.749979 429.941742 360.771345 C 428.23147 356.726701 427.379334 351.475864 427.379334 345.030837 L 427.379334 119.76095 C 430.223787 119.25687 434.424457 118.560759 439.987343 117.678619 C 445.550229 116.790477 451.20913 116.352407 456.958046 116.352407 C 462.646953 116.352407 467.735763 116.730468 472.224478 117.486588 C 476.773203 118.24871 480.595812 119.796956 483.698306 122.131328 C 486.794799 124.471701 489.195182 127.664209 490.899453 131.708854 C 492.609726 135.693489 493.461862 140.908319 493.461862 147.353346 Z M 634.808379 379.26029 C 619.511942 379.26029 605.325682 377.105947 592.243598 372.809263 C 579.155513 368.512578 567.747696 362.097556 558.014145 353.564197 C 548.346605 345.030837 540.725391 334.283125 535.168506 321.327061 C 529.60562 308.370997 526.821176 293.230585 526.821176 275.917827 C 526.821176 258.851108 529.60562 244.184772 535.168506 231.924819 C 540.725391 219.598855 548.028554 209.487244 557.065994 201.583985 C 566.169444 193.680726 576.533095 187.8658 588.162948 184.139206 C 599.792801 180.346602 611.710699 178.4503 623.910643 178.4503 C 637.622827 178.4503 650.104816 180.538633 661.356608 184.709297 C 672.608401 188.813951 682.311947 194.502857 690.461245 201.776016 C 698.616544 208.977163 704.971557 217.636543 709.520281 227.754154 C 714.069006 237.865765 716.349369 248.865518 716.349369 260.747411 C 716.349369 269.59282 713.882976 276.355897 708.95019 281.036643 C 704.023406 285.651378 697.164313 288.585845 688.378913 289.852047 L 592.429628 304.260342 C 595.274081 312.793702 601.089007 319.208724 609.874407 323.511409 C 618.725817 327.742083 628.837428 329.860421 640.21524 329.860421 C 650.830932 329.860421 660.852528 328.504205 670.268028 325.785772 C 679.749539 323.067339 687.460767 319.904835 693.401713 316.304261 C 697.572378 318.896674 701.082937 322.527252 703.92739 327.207998 C 706.771843 331.822733 708.19407 336.719513 708.19407 341.904339 C 708.19407 353.594202 702.757204 362.283586 691.883472 367.972492 C 683.608153 372.335187 674.282668 375.30566 663.919017 376.889913 C 653.549365 378.468164 643.85182 379.26029 634.808379 379.26029 Z M 623.910643 226.613973 C 617.711655 226.613973 612.3408 227.658139 607.792075 229.740471 C 603.23735 231.762793 599.540761 234.421217 596.696308 237.70974 C 593.851854 240.932254 591.703512 244.562832 590.251281 248.607477 C 588.859059 252.592111 588.036928 256.636756 587.784888 260.747411 L 654.14946 249.939689 C 653.39334 244.754863 650.548887 239.570037 645.616101 234.391212 C 640.749326 229.206386 633.512173 226.613973 623.910643 226.613973 Z M 737.652763 214.954115 C 739.735095 205.094545 743.815745 197.065266 749.882711 190.872279 C 756.009687 184.679292 763.594896 181.576798 772.638336 181.576798 C 781.165695 181.576798 787.772747 183.665131 792.453493 187.835795 C 797.128238 191.94645 802.313064 197.761376 808.00197 205.280574 L 832.839927 237.89577 L 874.366542 181.576798 C 888.588808 181.576798 899.840601 184.109202 908.115919 189.162006 C 916.463249 194.154802 920.633913 200.953885 920.633913 209.547254 C 920.633913 212.895787 920.159838 215.932271 919.211686 218.650704 C 918.323545 221.369137 916.967329 224.14758 915.137037 226.992033 C 913.366755 229.836486 911.026383 233.095005 908.115919 236.761589 C 905.271466 240.362163 901.922932 244.598838 898.070319 249.465613 L 872.47024 278.288205 L 923.286336 345.408898 C 922.026135 355.268468 918.137515 363.045707 911.626478 368.734614 C 905.181451 374.42352 897.434217 377.267973 888.396777 377.267973 C 878.537207 377.015933 870.699958 374.17148 864.885032 368.734614 C 859.070106 363.297748 853.44721 356.690695 848.010344 348.919457 L 826.95899 319.052699 L 787.424692 376.127791 C 786.098481 376.127791 784.646249 376.193802 783.061997 376.319822 C 781.549756 376.445842 780.283554 376.505852 779.269393 376.505852 C 766.061289 376.505852 756.009687 373.787419 749.12059 368.356553 C 742.297503 362.919687 738.882959 356.186615 738.882959 348.157336 C 738.882959 341.964349 740.371196 336.467473 743.341669 331.660708 C 746.312142 326.859943 751.430958 320.318901 758.698116 312.037581 L 789.699054 275.917827 Z M 980.763492 324.837621 C 977.919039 318.392594 974.882555 311.155441 971.660042 303.126162 C 968.437528 295.096883 965.052989 285.903418 961.518426 275.533766 C 958.037872 265.170115 954.407293 253.318227 950.614689 239.984103 C 946.882095 226.643978 942.96347 211.317536 938.858816 193.998777 C 942.45939 190.332193 947.296161 187.139684 953.363127 184.421251 C 959.490103 181.708819 966.163166 180.346602 973.364313 180.346602 C 982.467764 180.346602 989.986961 182.242904 995.933909 186.035508 C 1001.874855 189.762102 1006.267555 196.813225 1009.112008 207.176876 L 1039.830902 313.933884 L 1041.343143 313.933884 C 1044.439636 305.148484 1047.47612 295.570958 1050.446593 285.207307 C 1053.483077 274.837655 1056.417544 264.155954 1059.261997 253.162202 C 1062.106451 242.16245 1064.764874 231.162697 1067.225266 220.168946 C 1069.691659 209.169194 1071.809996 198.361472 1073.580278 187.73978 C 1082.935769 182.812995 1093.1734 180.346602 1104.299172 180.346602 C 1113.336612 180.346602 1120.825805 182.308915 1126.766751 186.227539 C 1132.773708 190.080153 1135.774186 196.813225 1135.774186 206.420756 C 1135.774186 213.369863 1134.85604 221.465153 1133.025749 230.688622 C 1131.195457 239.858083 1128.789074 249.621638 1125.8186 259.985289 C 1122.848127 270.354941 1119.343569 281.036643 1115.298925 292.030394 C 1111.31429 303.030146 1107.113621 313.837868 1102.684915 324.45956 C 1098.328221 335.075251 1093.8035 345.126853 1089.128755 354.608363 C 1084.454011 364.023863 1079.935291 372.497213 1075.572596 380.016411 C 1068.305438 392.654424 1061.542361 402.994071 1055.283364 411.01735 C 1049.090377 419.046629 1043.149431 425.335631 1037.460524 429.884355 C 1031.771618 434.439081 1026.082712 437.535574 1020.393805 439.179836 C 1014.704899 440.884108 1008.763953 441.736243 1002.570966 441.736243 C 991.697234 441.736243 982.88183 438.483725 976.118752 431.972688 C 969.415684 425.52166 965.401045 417.120322 964.074833 406.75067 C 972.356153 400.305643 980.637472 393.1285 988.91279 385.231242 C 997.19411 377.327983 1004.719308 369.238694 1011.482386 360.957375 C 1007.05368 359.697174 1002.312925 356.66069 997.26012 351.859925 C 992.201314 347.05316 986.704439 338.045725 980.763492 324.837621 Z M 980.763492 324.837621 " stroke="#5a0073" stroke-width="29.1255" stroke-opacity="1" stroke-miterlimit="4"/><path stroke-linecap="butt" transform="matrix(0.650938, 0, 0, 0.650938, 11.435384, 191.906334)" fill="none" stroke-linejoin="miter" d="M 1620.819457 372.623233 C 1617.975004 373.127313 1613.74433 373.823424 1608.115434 374.705565 C 1602.552547 375.653716 1596.929652 376.127791 1591.240745 376.127791 C 1585.551839 376.127791 1580.433024 375.719726 1575.878298 374.897595 C 1571.395584 374.135474 1567.60298 372.587227 1564.506486 370.252856 C 1561.403992 367.912483 1559.00361 364.749979 1557.299338 360.771345 C 1555.589066 356.726701 1554.73693 351.475864 1554.73693 345.030837 L 1554.73693 119.76095 C 1557.581383 119.25687 1561.788053 118.560759 1567.35094 117.678619 C 1572.907825 116.790477 1578.566726 116.352407 1584.321643 116.352407 C 1590.010549 116.352407 1595.093359 116.730468 1599.582074 117.486588 C 1604.1368 118.24871 1607.959409 119.796956 1611.055902 122.131328 C 1614.152395 124.471701 1616.552778 127.664209 1618.26305 131.708854 C 1619.967322 135.693489 1620.819457 140.908319 1620.819457 147.353346 Z M 1857.641185 278.666265 C 1857.641185 294.718822 1855.180793 309.037103 1850.248007 321.615107 C 1845.381232 334.1271 1838.462129 344.652777 1829.484699 353.186137 C 1820.57328 361.719496 1809.891578 368.194528 1797.439594 372.623233 C 1785.053621 377.045938 1771.209416 379.26029 1755.912979 379.26029 C 1740.616542 379.26029 1726.742332 376.919918 1714.290348 372.239172 C 1701.904375 367.564427 1691.252678 360.897365 1682.341258 352.237986 C 1673.429839 343.578606 1666.504735 333.022925 1661.577951 320.570941 C 1656.645165 308.118957 1654.184773 294.148732 1654.184773 278.666265 C 1654.184773 263.369828 1656.645165 249.525623 1661.577951 237.13965 C 1666.504735 224.687666 1673.429839 214.131984 1682.341258 205.472605 C 1691.252678 196.747215 1701.904375 190.080153 1714.290348 185.465418 C 1726.742332 180.790673 1740.616542 178.4503 1755.912979 178.4503 C 1771.209416 178.4503 1785.053621 180.850682 1797.439594 185.657448 C 1809.891578 190.398203 1820.57328 197.125275 1829.484699 205.850665 C 1838.462129 214.510045 1845.381232 225.065726 1850.248007 237.51771 C 1855.180793 249.903683 1857.641185 263.621868 1857.641185 278.666265 Z M 1721.779541 278.666265 C 1721.779541 294.466782 1724.816025 306.57071 1730.882991 314.97805 C 1736.949958 323.385389 1745.423308 327.586058 1756.291039 327.586058 C 1767.164771 327.586058 1775.5061 323.319379 1781.321026 314.786019 C 1787.201963 306.19265 1790.136431 294.148732 1790.136431 278.666265 C 1790.136431 263.117788 1787.135953 251.13988 1781.134997 242.732541 C 1775.188049 234.325201 1766.786711 230.124532 1755.912979 230.124532 C 1745.039246 230.124532 1736.631907 234.325201 1730.690961 242.732541 C 1724.750014 251.13988 1721.779541 263.117788 1721.779541 278.666265 Z M 1997.511467 367.216372 C 1993.844883 370.312865 1988.918098 372.809263 1982.719111 374.705565 C 1976.526124 376.667877 1969.132946 377.646033 1960.533576 377.646033 C 1949.977895 377.646033 1940.814435 376.157796 1933.043197 373.187323 C 1925.265958 370.21685 1920.081132 366.016181 1917.49472 360.579314 C 1914.650267 354.386328 1911.331738 344.556762 1907.539134 331.096618 C 1903.806539 317.630472 1900.10995 302.874122 1896.443366 286.815563 C 1892.842793 270.763006 1889.428249 254.458409 1886.205735 237.89577 C 1882.983222 221.273122 1880.450818 206.642791 1878.620527 193.998777 C 1882.287111 190.332193 1887.153886 187.139684 1893.220853 184.421251 C 1899.287819 181.708819 1905.954881 180.346602 1913.22804 180.346602 C 1922.26548 180.346602 1929.688662 182.368924 1935.503589 186.413569 C 1941.318515 190.398203 1944.895085 197.317306 1946.221296 207.176876 C 1948.813709 226.836008 1950.992056 243.080596 1952.762338 255.91064 C 1954.59263 268.740684 1956.080867 279.230355 1957.215048 287.385654 C 1958.42124 295.540953 1959.333385 301.763945 1959.969486 306.06663 C 1960.659596 310.297304 1961.259692 313.711848 1961.769773 316.304261 L 1963.288015 316.304261 C 1964.044135 312.133597 1965.400352 306.12664 1967.362664 298.289391 C 1969.318976 290.392133 1971.599339 281.384698 1974.185751 271.267086 C 1976.778164 261.155476 1979.496597 250.221734 1982.34105 238.465861 C 1985.185503 226.643978 1988.029957 214.91811 1990.87441 203.288257 C 1996.059236 200.443804 2001.178051 198.265457 2006.236857 196.747215 C 2011.289662 195.168963 2017.548659 194.376837 2025.007847 194.376837 C 2034.105297 194.376837 2041.882536 195.799064 2048.327562 198.643517 C 2054.8386 201.48797 2058.979259 205.88067 2060.749541 211.821616 C 2063.846035 223.199429 2066.816508 234.259191 2069.660961 245.006903 C 2072.505414 255.754615 2075.097827 265.740206 2077.4382 274.969676 C 2079.772572 284.133136 2081.860904 292.288435 2083.691196 299.429573 C 2085.527489 306.5047 2086.823695 312.133597 2087.579816 316.304261 L 2089.476118 316.304261 C 2092.320571 296.393089 2095.105014 275.695792 2097.817446 254.206368 C 2100.53588 232.710944 2103.068283 210.813456 2105.402655 188.501901 C 2110.083401 185.657448 2115.010185 183.59912 2120.195011 182.33892 C 2125.379837 181.012708 2130.558662 180.346602 2135.743488 180.346602 C 2144.780928 180.346602 2152.270121 182.308915 2158.211068 186.227539 C 2164.218025 190.080153 2167.218503 196.813225 2167.218503 206.420756 C 2167.218503 210.52541 2166.558397 216.724397 2165.232186 224.999716 C 2163.965984 233.281035 2162.291718 242.606521 2160.203385 252.970172 C 2158.121053 263.339824 2155.71467 274.23756 2152.996237 285.681383 C 2150.283805 297.059195 2147.565372 308.052947 2144.846939 318.674639 C 2142.128506 329.23032 2139.536093 338.807846 2137.0697 347.401215 C 2134.603307 355.934574 2132.49097 362.541627 2130.720688 367.216372 C 2127.054104 370.312865 2121.461213 372.809263 2113.936014 374.705565 C 2106.476826 376.667877 2098.453548 377.646033 2089.854178 377.646033 C 2068.112714 377.646033 2055.312675 372.209167 2051.460061 361.335435 C 2049.875809 356.66069 2047.919497 350.785754 2045.579125 343.704626 C 2043.304762 336.563489 2040.868374 328.72624 2038.281962 320.192881 C 2035.689549 311.659521 2033.223156 302.808111 2030.882783 293.644651 C 2028.548411 284.415181 2026.586099 275.533766 2025.007847 267.000407 C 2023.237565 276.043847 2021.053217 285.429343 2018.466805 295.162893 C 2015.874392 304.830433 2013.215969 314.281939 2010.497536 323.511409 C 2007.785104 332.674869 2005.2527 341.082208 2002.918328 348.727426 C 2000.577956 356.378645 1998.777669 362.541627 1997.511467 367.216372 Z M 1997.511467 367.216372 " stroke="#5a0073" stroke-width="29.1255" stroke-opacity="1" stroke-miterlimit="4"/><g fill="#cb6ce6" fill-opacity="1"><g transform="translate(22.95902, 434.706189)"><g/></g></g><g fill="#cb6ce6" fill-opacity="1"><g transform="translate(73.515959, 434.706189)"><g/></g></g><g fill="#cb6ce6" fill-opacity="1"><g transform="translate(124.072898, 434.706189)"><g/></g></g><g fill="#cb6ce6" fill-opacity="1"><g transform="translate(174.629837, 434.706189)"><g/></g></g><g fill="#cb6ce6" fill-opacity="1"><g transform="translate(225.186775, 434.706189)"><g/></g></g><g fill="#cb6ce6" fill-opacity="1"><g transform="translate(275.746708, 434.706189)"><g><path d="M 56.875 -0.25 C 55.019531 0.0820312 52.28125 0.539062 48.65625 1.125 C 45.03125 1.71875 41.367188 2.015625 37.671875 2.015625 C 33.960938 2.015625 30.628906 1.757812 27.671875 1.25 C 24.722656 0.75 22.238281 -0.253906 20.21875 -1.765625 C 18.195312 -3.285156 16.640625 -5.347656 15.546875 -7.953125 C 14.453125 -10.566406 13.90625 -13.984375 13.90625 -18.203125 L 13.90625 -164.8125 C 15.757812 -165.144531 18.492188 -165.609375 22.109375 -166.203125 C 25.734375 -166.796875 29.398438 -167.09375 33.109375 -167.09375 C 36.816406 -167.09375 40.144531 -166.835938 43.09375 -166.328125 C 46.039062 -165.828125 48.523438 -164.816406 50.546875 -163.296875 C 52.578125 -161.773438 54.140625 -159.707031 55.234375 -157.09375 C 56.328125 -154.488281 56.875 -151.078125 56.875 -146.859375 Z M 56.875 -0.25 "/></g></g></g><g fill="#cb6ce6" fill-opacity="1"><g transform="translate(346.526447, 434.706189)"><g><path d="M 78.109375 4.046875 C 68.160156 4.046875 58.929688 2.65625 50.421875 -0.125 C 41.921875 -2.90625 34.507812 -7.078125 28.1875 -12.640625 C 21.863281 -18.203125 16.890625 -25.195312 13.265625 -33.625 C 9.648438 -42.050781 7.84375 -51.90625 7.84375 -63.1875 C 7.84375 -74.3125 9.648438 -83.875 13.265625 -91.875 C 16.890625 -99.882812 21.648438 -106.457031 27.546875 -111.59375 C 33.453125 -116.738281 40.195312 -120.53125 47.78125 -122.96875 C 55.363281 -125.414062 63.113281 -126.640625 71.03125 -126.640625 C 79.957031 -126.640625 88.085938 -125.289062 95.421875 -122.59375 C 102.753906 -119.894531 109.070312 -116.1875 114.375 -111.46875 C 119.6875 -106.757812 123.816406 -101.117188 126.765625 -94.546875 C 129.710938 -87.972656 131.1875 -80.804688 131.1875 -73.046875 C 131.1875 -67.316406 129.585938 -62.9375 126.390625 -59.90625 C 123.191406 -56.875 118.726562 -54.9375 113 -54.09375 L 50.5625 -44.75 C 52.414062 -39.1875 56.207031 -35.015625 61.9375 -32.234375 C 67.664062 -29.453125 74.234375 -28.0625 81.640625 -28.0625 C 88.554688 -28.0625 95.085938 -28.941406 101.234375 -30.703125 C 107.390625 -32.472656 112.40625 -34.539062 116.28125 -36.90625 C 118.976562 -35.21875 121.253906 -32.859375 123.109375 -29.828125 C 124.960938 -26.796875 125.890625 -23.59375 125.890625 -20.21875 C 125.890625 -12.632812 122.347656 -6.988281 115.265625 -3.28125 C 109.867188 -0.414062 103.800781 1.519531 97.0625 2.53125 C 90.320312 3.539062 84.003906 4.046875 78.109375 4.046875 Z M 71.03125 -95.296875 C 66.988281 -95.296875 63.492188 -94.617188 60.546875 -93.265625 C 57.597656 -91.921875 55.195312 -90.195312 53.34375 -88.09375 C 51.488281 -85.988281 50.097656 -83.628906 49.171875 -81.015625 C 48.242188 -78.398438 47.691406 -75.742188 47.515625 -73.046875 L 90.75 -80.125 C 90.238281 -83.5 88.382812 -86.867188 85.1875 -90.234375 C 81.988281 -93.609375 77.269531 -95.296875 71.03125 -95.296875 Z M 71.03125 -95.296875 "/></g></g></g><g fill="#cb6ce6" fill-opacity="1"><g transform="translate(485.305305, 434.706189)"><g><path d="M 6.3125 -102.875 C 7.664062 -109.28125 10.320312 -114.503906 14.28125 -118.546875 C 18.238281 -122.597656 23.164062 -124.625 29.0625 -124.625 C 34.625 -124.625 38.921875 -123.273438 41.953125 -120.578125 C 44.992188 -117.878906 48.367188 -114.085938 52.078125 -109.203125 L 68.25 -87.96875 L 95.296875 -124.625 C 104.566406 -124.625 111.894531 -122.976562 117.28125 -119.6875 C 122.675781 -116.40625 125.375 -111.984375 125.375 -106.421875 C 125.375 -104.234375 125.078125 -102.253906 124.484375 -100.484375 C 123.898438 -98.710938 123.019531 -96.898438 121.84375 -95.046875 C 120.664062 -93.191406 119.148438 -91.082031 117.296875 -88.71875 C 115.441406 -86.363281 113.25 -83.585938 110.71875 -80.390625 L 94.03125 -61.671875 L 127.15625 -17.953125 C 126.3125 -11.546875 123.78125 -6.488281 119.5625 -2.78125 C 115.351562 0.925781 110.300781 2.78125 104.40625 2.78125 C 98 2.613281 92.898438 0.757812 89.109375 -2.78125 C 85.316406 -6.320312 81.648438 -10.617188 78.109375 -15.671875 L 64.453125 -35.140625 L 38.671875 2.015625 C 37.828125 2.015625 36.898438 2.054688 35.890625 2.140625 C 34.878906 2.234375 34.035156 2.28125 33.359375 2.28125 C 24.765625 2.28125 18.234375 0.507812 13.765625 -3.03125 C 9.304688 -6.570312 7.078125 -10.953125 7.078125 -16.171875 C 7.078125 -20.222656 8.046875 -23.804688 9.984375 -26.921875 C 11.921875 -30.035156 15.25 -34.289062 19.96875 -39.6875 L 40.1875 -63.1875 Z M 6.3125 -102.875 "/></g></g></g><g fill="#cb6ce6" fill-opacity="1"><g transform="translate(617.511741, 434.706189)"><g><path d="M 32.359375 -31.34375 C 30.503906 -35.5625 28.519531 -40.28125 26.40625 -45.5 C 24.300781 -50.726562 22.113281 -56.710938 19.84375 -63.453125 C 17.570312 -70.191406 15.210938 -77.898438 12.765625 -86.578125 C 10.316406 -95.253906 7.75 -105.238281 5.0625 -116.53125 C 7.414062 -118.894531 10.570312 -120.957031 14.53125 -122.71875 C 18.488281 -124.488281 22.828125 -125.375 27.546875 -125.375 C 33.453125 -125.375 38.34375 -124.148438 42.21875 -121.703125 C 46.09375 -119.265625 48.957031 -114.675781 50.8125 -107.9375 L 70.78125 -38.421875 L 71.796875 -38.421875 C 73.816406 -44.148438 75.796875 -50.382812 77.734375 -57.125 C 79.671875 -63.863281 81.566406 -70.8125 83.421875 -77.96875 C 85.273438 -85.132812 87 -92.300781 88.59375 -99.46875 C 90.195312 -106.632812 91.585938 -113.671875 92.765625 -120.578125 C 98.835938 -123.773438 105.492188 -125.375 112.734375 -125.375 C 118.640625 -125.375 123.53125 -124.109375 127.40625 -121.578125 C 131.28125 -119.054688 133.21875 -114.675781 133.21875 -108.4375 C 133.21875 -103.894531 132.625 -98.628906 131.4375 -92.640625 C 130.257812 -86.660156 128.703125 -80.300781 126.765625 -73.5625 C 124.828125 -66.820312 122.550781 -59.867188 119.9375 -52.703125 C 117.332031 -45.546875 114.597656 -38.507812 111.734375 -31.59375 C 108.867188 -24.6875 105.914062 -18.15625 102.875 -12 C 99.84375 -5.851562 96.894531 -0.335938 94.03125 4.546875 C 89.3125 12.804688 84.929688 19.546875 80.890625 24.765625 C 76.847656 29.992188 72.972656 34.082031 69.265625 37.03125 C 65.554688 39.976562 61.847656 42 58.140625 43.09375 C 54.429688 44.195312 50.554688 44.75 46.515625 44.75 C 39.429688 44.75 33.695312 42.640625 29.3125 38.421875 C 24.9375 34.210938 22.328125 28.734375 21.484375 21.984375 C 26.878906 17.773438 32.269531 13.097656 37.65625 7.953125 C 43.050781 2.816406 47.941406 -2.445312 52.328125 -7.84375 C 49.460938 -8.675781 46.382812 -10.648438 43.09375 -13.765625 C 39.8125 -16.890625 36.234375 -22.75 32.359375 -31.34375 Z M 32.359375 -31.34375 "/></g></g></g><g fill="#cb6ce6" fill-opacity="1"><g transform="translate(756.800022, 434.706189)"><g/></g></g><g fill="#cb6ce6" fill-opacity="1"><g transform="translate(807.356961, 434.706189)"><g/></g></g><g fill="#cb6ce6" fill-opacity="1"><g transform="translate(857.9139, 434.706189)"><g/></g></g><g fill="#cb6ce6" fill-opacity="1"><g transform="translate(908.470838, 434.706189)"><g/></g></g><g fill="#cb6ce6" fill-opacity="1"><g transform="translate(959.027777, 434.706189)"><g/></g></g><g fill="#cb6ce6" fill-opacity="1"><g transform="translate(1009.587707, 434.706189)"><g><path d="M 56.875 -0.25 C 55.019531 0.0820312 52.28125 0.539062 48.65625 1.125 C 45.03125 1.71875 41.367188 2.015625 37.671875 2.015625 C 33.960938 2.015625 30.628906 1.757812 27.671875 1.25 C 24.722656 0.75 22.238281 -0.253906 20.21875 -1.765625 C 18.195312 -3.285156 16.640625 -5.347656 15.546875 -7.953125 C 14.453125 -10.566406 13.90625 -13.984375 13.90625 -18.203125 L 13.90625 -164.8125 C 15.757812 -165.144531 18.492188 -165.609375 22.109375 -166.203125 C 25.734375 -166.796875 29.398438 -167.09375 33.109375 -167.09375 C 36.816406 -167.09375 40.144531 -166.835938 43.09375 -166.328125 C 46.039062 -165.828125 48.523438 -164.816406 50.546875 -163.296875 C 52.578125 -161.773438 54.140625 -159.707031 55.234375 -157.09375 C 56.328125 -154.488281 56.875 -151.078125 56.875 -146.859375 Z M 56.875 -0.25 "/></g></g></g><g fill="#cb6ce6" fill-opacity="1"><g transform="translate(1080.367446, 434.706189)"><g><path d="M 140.296875 -61.421875 C 140.296875 -50.972656 138.691406 -41.660156 135.484375 -33.484375 C 132.285156 -25.316406 127.78125 -18.453125 121.96875 -12.890625 C 116.15625 -7.328125 109.203125 -3.113281 101.109375 -0.25 C 93.023438 2.613281 84.007812 4.046875 74.0625 4.046875 C 64.125 4.046875 55.109375 2.53125 47.015625 -0.5 C 38.929688 -3.539062 31.976562 -7.878906 26.15625 -13.515625 C 20.34375 -19.160156 15.835938 -26.03125 12.640625 -34.125 C 9.441406 -42.21875 7.84375 -51.316406 7.84375 -61.421875 C 7.84375 -71.367188 9.441406 -80.382812 12.640625 -88.46875 C 15.835938 -96.5625 20.34375 -103.429688 26.15625 -109.078125 C 31.976562 -114.722656 38.929688 -119.0625 47.015625 -122.09375 C 55.109375 -125.125 64.125 -126.640625 74.0625 -126.640625 C 84.007812 -126.640625 93.023438 -125.082031 101.109375 -121.96875 C 109.203125 -118.851562 116.15625 -114.472656 121.96875 -108.828125 C 127.78125 -103.179688 132.285156 -96.3125 135.484375 -88.21875 C 138.691406 -80.132812 140.296875 -71.203125 140.296875 -61.421875 Z M 51.8125 -61.421875 C 51.8125 -51.140625 53.789062 -43.257812 57.75 -37.78125 C 61.71875 -32.3125 67.238281 -29.578125 74.3125 -29.578125 C 81.394531 -29.578125 86.832031 -32.359375 90.625 -37.921875 C 94.414062 -43.484375 96.3125 -51.316406 96.3125 -61.421875 C 96.3125 -71.535156 94.375 -79.332031 90.5 -84.8125 C 86.625 -90.289062 81.144531 -93.03125 74.0625 -93.03125 C 66.988281 -93.03125 61.507812 -90.289062 57.625 -84.8125 C 53.75 -79.332031 51.8125 -71.535156 51.8125 -61.421875 Z M 51.8125 -61.421875 "/></g></g></g><g fill="#cb6ce6" fill-opacity="1"><g transform="translate(1228.499345, 434.706189)"><g><path d="M 83.171875 -3.796875 C 80.804688 -1.773438 77.601562 -0.132812 73.5625 1.125 C 69.519531 2.394531 64.71875 3.03125 59.15625 3.03125 C 52.238281 3.03125 46.253906 2.0625 41.203125 0.125 C 36.148438 -1.8125 32.78125 -4.550781 31.09375 -8.09375 C 29.238281 -12.132812 27.085938 -18.535156 24.640625 -27.296875 C 22.203125 -36.054688 19.800781 -45.660156 17.4375 -56.109375 C 15.082031 -66.566406 12.847656 -77.1875 10.734375 -87.96875 C 8.628906 -98.75 6.988281 -108.269531 5.8125 -116.53125 C 8.175781 -118.894531 11.335938 -120.957031 15.296875 -122.71875 C 19.253906 -124.488281 23.59375 -125.375 28.3125 -125.375 C 34.207031 -125.375 39.050781 -124.066406 42.84375 -121.453125 C 46.632812 -118.847656 48.953125 -114.34375 49.796875 -107.9375 C 51.484375 -95.125 52.914062 -84.546875 54.09375 -76.203125 C 55.269531 -67.867188 56.238281 -61.046875 57 -55.734375 C 57.757812 -50.429688 58.347656 -46.390625 58.765625 -43.609375 C 59.191406 -40.828125 59.570312 -38.59375 59.90625 -36.90625 L 60.921875 -36.90625 C 61.421875 -39.601562 62.300781 -43.519531 63.5625 -48.65625 C 64.832031 -53.800781 66.3125 -59.660156 68 -66.234375 C 69.6875 -72.804688 71.457031 -79.925781 73.3125 -87.59375 C 75.164062 -95.257812 77.019531 -102.882812 78.875 -110.46875 C 82.238281 -112.320312 85.5625 -113.753906 88.84375 -114.765625 C 92.132812 -115.773438 96.222656 -116.28125 101.109375 -116.28125 C 107.003906 -116.28125 112.054688 -115.351562 116.265625 -113.5 C 120.484375 -111.644531 123.1875 -108.78125 124.375 -104.90625 C 126.394531 -97.488281 128.332031 -90.28125 130.1875 -83.28125 C 132.039062 -76.289062 133.722656 -69.804688 135.234375 -63.828125 C 136.753906 -57.847656 138.101562 -52.539062 139.28125 -47.90625 C 140.457031 -43.269531 141.300781 -39.601562 141.8125 -36.90625 L 143.078125 -36.90625 C 144.929688 -49.882812 146.738281 -63.363281 148.5 -77.34375 C 150.269531 -91.332031 151.914062 -105.578125 153.4375 -120.078125 C 156.46875 -121.929688 159.664062 -123.273438 163.03125 -124.109375 C 166.40625 -124.953125 169.78125 -125.375 173.15625 -125.375 C 179.050781 -125.375 183.9375 -124.109375 187.8125 -121.578125 C 191.6875 -119.054688 193.625 -114.675781 193.625 -108.4375 C 193.625 -105.75 193.203125 -101.707031 192.359375 -96.3125 C 191.523438 -90.914062 190.429688 -84.847656 189.078125 -78.109375 C 187.734375 -71.367188 186.175781 -64.289062 184.40625 -56.875 C 182.632812 -49.457031 180.863281 -42.296875 179.09375 -35.390625 C 177.320312 -28.484375 175.632812 -22.25 174.03125 -16.6875 C 172.4375 -11.125 171.050781 -6.828125 169.875 -3.796875 C 167.507812 -1.773438 163.882812 -0.132812 159 1.125 C 154.113281 2.394531 148.890625 3.03125 143.328125 3.03125 C 129.171875 3.03125 120.828125 -0.503906 118.296875 -7.578125 C 117.285156 -10.617188 116.019531 -14.453125 114.5 -19.078125 C 112.988281 -23.710938 111.390625 -28.8125 109.703125 -34.375 C 108.015625 -39.9375 106.410156 -45.707031 104.890625 -51.6875 C 103.378906 -57.675781 102.117188 -63.453125 101.109375 -69.015625 C 99.929688 -63.109375 98.5 -56.992188 96.8125 -50.671875 C 95.125 -44.359375 93.394531 -38.207031 91.625 -32.21875 C 89.863281 -26.238281 88.222656 -20.765625 86.703125 -15.796875 C 85.179688 -10.828125 84.003906 -6.828125 83.171875 -3.796875 Z M 83.171875 -3.796875 "/></g></g></g><path stroke-linecap="butt" transform="matrix(0.75, 0, 0, 0.75, 752.55232, -50.891454)" fill="none" stroke-linejoin="miter" d="M 333.143798 240.829243 C 336.346923 245.797993 339.164632 252.480285 341.591715 260.87091 C 344.133382 269.157369 345.404215 277.824036 345.404215 286.881328 C 345.404215 304.553204 341.649007 317.141747 334.13859 324.652164 C 326.737548 332.053206 316.690672 335.751123 303.987546 335.751123 L 161.518789 335.751123 L 161.518789 412.454251 L 310.117755 412.454251 C 313.763589 417.423002 316.800047 423.995919 319.232339 432.167794 C 321.768797 440.339669 323.039631 448.954253 323.039631 458.011545 C 323.039631 475.12613 319.284422 487.443839 311.774005 494.954256 C 304.378171 502.350089 294.326088 506.053214 281.622962 506.053214 L 162.846914 506.053214 L 162.846914 649.350097 C 157.872956 650.673013 150.034414 652.001138 139.320872 653.324055 C 128.716704 654.65218 118.22712 655.313639 107.846912 655.313639 C 97.466703 655.313639 88.300036 654.537597 80.34691 652.99593 C 72.50316 651.449055 65.820868 648.631347 60.300034 644.542805 C 54.888576 640.459471 50.805242 634.824054 48.039617 627.646971 C 45.393783 620.360512 44.065658 610.860511 44.065658 599.152177 L 44.065658 303.943829 C 44.065658 284.506328 49.701075 269.157369 60.961493 257.891744 C 72.336493 246.516743 87.747952 240.829243 107.185453 240.829243 Z M 333.143798 240.829243 " stroke="#5a0073" stroke-width="50.891476" stroke-opacity="1" stroke-miterlimit="4"/><g fill="#ffde59" fill-opacity="1"><g transform="translate(752.55232, 438.108521)"><g><path d="M 249.875 -308.390625 C 252.25 -304.660156 254.367188 -299.65625 256.234375 -293.375 C 258.097656 -287.101562 259.03125 -280.578125 259.03125 -273.796875 C 259.03125 -260.554688 256.226562 -251.140625 250.625 -245.546875 C 245.03125 -239.953125 237.484375 -237.15625 227.984375 -237.15625 L 121.125 -237.15625 L 121.125 -179.640625 L 232.5625 -179.640625 C 235.28125 -175.910156 237.570312 -170.988281 239.4375 -164.875 C 241.300781 -158.769531 242.234375 -152.328125 242.234375 -145.546875 C 242.234375 -132.648438 239.4375 -123.40625 233.84375 -117.8125 C 228.25 -112.21875 220.703125 -109.421875 211.203125 -109.421875 L 122.140625 -109.421875 L 122.140625 -2.03125 C 118.410156 -1.019531 112.554688 -0.00390625 104.578125 1.015625 C 96.609375 2.035156 88.722656 2.546875 80.921875 2.546875 C 73.117188 2.546875 66.25 1.953125 60.3125 0.765625 C 54.375 -0.421875 49.367188 -2.539062 45.296875 -5.59375 C 41.222656 -8.644531 38.164062 -12.882812 36.125 -18.3125 C 34.09375 -23.75 33.078125 -30.875 33.078125 -39.6875 L 33.078125 -261.0625 C 33.078125 -275.65625 37.316406 -287.191406 45.796875 -295.671875 C 54.285156 -304.148438 65.820312 -308.390625 80.40625 -308.390625 Z M 249.875 -308.390625 "/></g></g></g><g fill="#ffde59" fill-opacity="1"><g transform="translate(1022.786682, 438.108521)"><g/></g></g><path stroke-linecap="butt" transform="matrix(0.75, 0, 0, 0.75, 11.435384, -67.540678)" fill="none" stroke-linejoin="miter" d="M 333.143463 240.830291 C 336.346588 245.799042 339.164296 252.481334 341.596588 260.871959 C 344.133047 269.158418 345.40388 277.825085 345.40388 286.882377 C 345.40388 304.554253 341.648671 317.142795 334.138254 324.653212 C 326.742421 332.054254 316.690337 335.752171 303.987211 335.752171 L 161.518454 335.752171 L 161.518454 412.4553 L 310.11742 412.4553 C 313.763253 417.42405 316.799712 423.996967 319.232004 432.168843 C 321.768462 440.340718 323.039296 448.955302 323.039296 458.012594 C 323.039296 475.127178 319.284087 487.444887 311.77367 494.955304 C 304.377836 502.351138 294.325752 506.054263 281.622627 506.054263 L 162.846579 506.054263 L 162.846579 649.351145 C 157.877829 650.674062 150.034078 652.002187 139.320536 653.325104 C 128.721577 654.648021 118.226785 655.314687 107.846576 655.314687 C 97.466368 655.314687 88.2997 654.538646 80.346575 652.99177 C 72.502825 651.450104 65.820533 648.632395 60.299699 644.543853 C 54.88824 640.46052 50.804907 634.825103 48.039282 627.648019 C 45.393448 620.356352 44.065323 610.86156 44.065323 599.153226 L 44.065323 303.944878 C 44.065323 284.507377 49.70074 269.158418 60.961157 257.892792 C 72.341366 246.517792 87.747617 240.830291 107.185118 240.830291 Z M 333.143463 240.830291 " stroke="#5a0073" stroke-width="50.891476" stroke-opacity="1" stroke-miterlimit="4"/><g fill="#ffde59" fill-opacity="1"><g transform="translate(11.435384, 421.459297)"><g><path d="M 249.875 -308.390625 C 252.25 -304.660156 254.367188 -299.65625 256.234375 -293.375 C 258.097656 -287.101562 259.03125 -280.578125 259.03125 -273.796875 C 259.03125 -260.554688 256.226562 -251.140625 250.625 -245.546875 C 245.03125 -239.953125 237.484375 -237.15625 227.984375 -237.15625 L 121.125 -237.15625 L 121.125 -179.640625 L 232.5625 -179.640625 C 235.28125 -175.910156 237.570312 -170.988281 239.4375 -164.875 C 241.300781 -158.769531 242.234375 -152.328125 242.234375 -145.546875 C 242.234375 -132.648438 239.4375 -123.40625 233.84375 -117.8125 C 228.25 -112.21875 220.703125 -109.421875 211.203125 -109.421875 L 122.140625 -109.421875 L 122.140625 -2.03125 C 118.410156 -1.019531 112.554688 -0.00390625 104.578125 1.015625 C 96.609375 2.035156 88.722656 2.546875 80.921875 2.546875 C 73.117188 2.546875 66.25 1.953125 60.3125 0.765625 C 54.375 -0.421875 49.367188 -2.539062 45.296875 -5.59375 C 41.222656 -8.644531 38.164062 -12.882812 36.125 -18.3125 C 34.09375 -23.75 33.078125 -30.875 33.078125 -39.6875 L 33.078125 -261.0625 C 33.078125 -275.65625 37.316406 -287.191406 45.796875 -295.671875 C 54.285156 -304.148438 65.820312 -308.390625 80.40625 -308.390625 Z M 249.875 -308.390625 "/></g></g></g><g fill="#ffde59" fill-opacity="1"><g transform="translate(281.669746, 421.459297)"><g/></g></g></svg>