<svg id="visual" viewBox="0 0 900 600" width="900" height="600" xmlns="http://www.w3.org/2000/svg" xmlns:xlink="http://www.w3.org/1999/xlink" version="1.1"><rect x="0" y="0" width="900" height="600" fill="#FFF"></rect><path d="M0 427L12.5 431.2C25 435.3 50 443.7 75 451C100 458.3 125 464.7 150 463.5C175 462.3 200 453.7 225 445.2C250 436.7 275 428.3 300 425.7C325 423 350 426 375 432.3C400 438.7 425 448.3 450 454.8C475 461.3 500 464.7 525 460.7C550 456.7 575 445.3 600 439.2C625 433 650 432 675 438C700 444 725 457 750 456.8C775 456.7 800 443.3 825 440C850 436.7 875 443.3 887.5 446.7L900 450L900 601L887.5 601C875 601 850 601 825 601C800 601 775 601 750 601C725 601 700 601 675 601C650 601 625 601 600 601C575 601 550 601 525 601C500 601 475 601 450 601C425 601 400 601 375 601C350 601 325 601 300 601C275 601 250 601 225 601C200 601 175 601 150 601C125 601 100 601 75 601C50 601 25 601 12.5 601L0 601Z" fill="#fffb00" stroke-linecap="round" stroke-linejoin="miter"></path></svg>