<svg id="visual" viewBox="0 0 900 600" width="900" height="600" xmlns="http://www.w3.org/2000/svg" xmlns:xlink="http://www.w3.org/1999/xlink" version="1.1"><rect x="0" y="0" width="900" height="600" fill="#FFF"></rect><path d="M0 171L12.5 166.8C25 162.7 50 154.3 75 147C100 139.7 125 133.3 150 134.5C175 135.7 200 144.3 225 152.8C250 161.3 275 169.7 300 172.3C325 175 350 172 375 165.7C400 159.3 425 149.7 450 143.2C475 136.7 500 133.3 525 137.3C550 141.3 575 152.7 600 158.8C625 165 650 166 675 160C700 154 725 141 750 141.2C775 141.3 800 154.7 825 158C850 161.3 875 154.7 887.5 151.3L900 148L900 0L887.5 0C875 0 850 0 825 0C800 0 775 0 750 0C725 0 700 0 675 0C650 0 625 0 600 0C575 0 550 0 525 0C500 0 475 0 450 0C425 0 400 0 375 0C350 0 325 0 300 0C275 0 250 0 225 0C200 0 175 0 150 0C125 0 100 0 75 0C50 0 25 0 12.5 0L0 0Z" fill="#fffb00" stroke-linecap="round" stroke-linejoin="miter"></path></svg>